<svg width="580" height="394" viewBox="0 0 580 394" fill="none" xmlns="http://www.w3.org/2000/svg">
<path d="M560.869 310.188C565.133 310.188 569.397 310.188 573.654 310.188C574.648 310.188 575.768 309.829 576.566 310.818C574.749 312.323 572.567 311.807 570.529 311.807C518.72 311.84 466.914 311.84 415.11 311.807C413.543 311.86 411.975 311.797 410.418 311.618C406.984 310.427 406.267 309.055 407.525 305.843C408.154 304.3 408.733 302.75 409.412 301.245C410.512 298.858 410.519 296.641 408.689 294.595C407.802 290.772 408.651 287.239 410.512 283.888C412.915 282.547 413.657 280.412 413.512 277.792C412.305 249.364 399.129 228.625 373.615 216.029C370.175 214.329 368.898 212.383 368.81 208.629C368.421 194.375 366.714 180.189 363.71 166.251C362.894 162.561 361.591 158.997 359.836 155.651C357.32 150.695 357.371 150.657 361.138 146.69C369.181 138.225 370.923 128.35 366.955 117.587C360.238 99.3676 335.391 94.556 322.448 108.821C318.354 113.342 318.291 119.262 322.297 123.589C325.869 127.443 332.435 127.802 336.9 124.376C337.456 123.9 338.042 123.461 338.655 123.06C341.428 121.448 344.529 122.222 346.308 124.949C347.925 127.469 347.201 130.561 344.573 132.368C343.406 133.075 342.155 133.632 340.85 134.025C337.705 135.177 335.032 137.048 333.441 140.026C331.85 143.005 329.605 143.755 326.479 143.736C313.071 143.641 299.669 143.692 286.261 143.692H181.336C179.349 143.653 177.361 143.775 175.393 144.057C165.595 145.65 160.105 151.073 158.633 160.904C158.059 164.75 158.12 168.665 158.815 172.492C159.564 176.674 160.645 177.669 164.853 177.694C173.23 177.751 181.613 177.694 190.009 177.694C195.795 177.694 196.115 177.958 196.845 183.759C197.889 192.078 198.316 200.436 198.662 208.818C199.851 237.744 198.857 266.676 199.191 295.609C199.147 299.696 199.153 303.796 199.191 307.871C199.191 310.516 197.933 311.706 195.417 311.737C194.266 311.737 193.115 311.775 191.965 311.775H56.3115C54.4248 311.775 52.5382 311.952 50.7018 311.416C50.3427 311.279 50.0184 311.064 49.7521 310.786C48.7019 307.405 48.5447 303.859 47.4881 300.414C45.3624 293.486 42.1048 286.987 40.4004 279.921C36.407 263.288 41.1048 249.288 53.0979 237.542C57.3681 233.361 63.0973 231.496 68.3675 228.958C76.1931 225.317 82.9506 219.719 87.9891 212.704C93.2718 205.285 93.9007 196.959 92.6555 188.337C91.6241 181.164 88.9513 174.35 87.8444 167.189C87.0394 161.943 86.9199 156.684 89.2406 151.759C92.4479 145.046 98.108 141.324 105.416 140.329C110.447 139.636 115.547 139.12 120.736 139.894C126.138 140.707 131.634 139.982 136.974 138.956C145.407 137.337 150.91 132.192 153.658 124.024C155.545 118.393 155.822 112.517 156.57 106.705C157.922 96.2186 160.425 86.1043 166.129 77.0102C173.859 64.6727 184.927 57.7639 199.342 55.7738C209.542 54.3694 219.397 55.9376 229.164 58.4252C238.931 60.9129 248.71 62.9849 258.892 62.7455C266.999 62.6035 274.881 60.0471 281.532 55.4022C290.758 49.0477 299.695 42.2397 309.939 37.51C320.373 32.6922 331.007 31.1744 341.849 35.8978C349.755 39.3427 355.629 45.3068 360.553 52.2722C365.798 59.6722 369.609 67.8342 373.131 76.1663C375.728 82.3634 378.608 88.403 382.445 93.9577C384.668 97.1432 387.312 100.012 390.306 102.485C396.023 107.259 402.79 107.983 409.884 107.196C414.374 106.698 418.688 105.476 423.153 104.677C425.625 104.242 428.096 103.826 430.606 103.593C445.661 102.183 454.887 110.672 462.245 122.235C467.088 129.843 466.994 138.112 464.994 146.538C463.667 152.15 462.095 157.698 461.107 163.392C459.661 171.724 460.918 179.709 464.145 187.393C466.987 194.169 472.037 198.622 479.169 200.618C483.017 201.644 486.926 202.425 490.873 202.955C507.853 205.423 516.915 216.092 520.135 231.925C521.815 240.169 520.135 248.205 518.783 256.253C517.645 263.068 515.853 269.769 515.815 276.759C515.704 281.643 517.511 286.376 520.846 289.941C525.089 294.485 528.099 300.042 529.588 306.082C530.217 308.601 531.418 309.596 533.99 309.401C536.279 309.231 538.594 309.401 540.908 309.281C546.203 309.181 551.498 309.231 556.787 309.243C558.184 309.225 559.668 309.124 560.869 310.188Z" fill="#DBE2FE"/>
<path d="M49.9475 310.19C49.9475 310.385 49.9475 310.58 49.9475 310.775C48.8092 311.997 47.281 311.84 45.8471 311.84C32.8038 311.877 19.7605 311.877 6.71714 311.84C5.3713 311.84 3.97515 311.928 2.84314 310.945C3.56637 309.812 4.72983 310.221 5.70462 310.208C9.05664 310.164 12.4087 310.089 15.767 310.208C18.2826 310.309 18.8234 309.446 18.2826 307.06C16.5971 299.779 13.8363 292.902 11.0943 286.018C5.30213 271.357 6.48445 257.47 13.9432 243.59C19.2385 233.74 27.3261 227.946 37.2941 223.903C49.6142 218.908 59.2489 210.627 65.5945 198.881C69.9967 190.751 69.6131 181.921 67.8774 173.186C66.4372 165.937 64.2926 158.833 62.8902 151.578C61.0601 142.201 62.2613 133.516 70.0345 126.809C74.5562 122.891 80.0276 121.67 85.7066 121.506C93.6558 121.273 101.63 121.676 109.573 121.374C116.491 121.115 123.164 119.768 128.937 115.328C133.792 111.593 136.087 106.429 137.867 100.937C140.138 93.9465 139.855 86.5339 141.068 79.3606C143.71 63.7231 148.54 49.1309 160.665 38.0215C165.701 33.4397 171.674 30.0119 178.167 27.9764C185.938 25.5185 194.115 24.6113 202.235 25.3062C211.165 25.9926 219.844 28.115 228.504 30.5271C236.439 32.7126 244.625 33.8558 252.855 33.9279C266.118 34.0917 277.382 28.8896 287.865 20.9166C299.035 12.3893 310.632 4.34061 324.744 1.1224C337.41 -1.76831 348.642 0.920873 358.66 9.23404C367.465 16.527 373.251 25.98 378.345 35.9621C383.936 46.9204 387.52 58.8737 394.822 68.9944C398.275 73.787 402.142 78.1263 407.331 81.0674C414.984 85.4129 423.141 84.8839 431.392 83.3976C438.543 82.138 445.568 80.0849 452.913 79.9086C464.233 79.6377 472.66 85.0602 479.559 93.4048C482.547 97.0135 485.54 100.685 487.263 105.125C489.88 111.876 489.779 118.817 488.301 125.776C486.735 133.207 483.899 140.368 483.239 147.995C482.1 161.396 483.641 174.156 493.458 184.434C498.345 189.554 505.124 190.574 511.696 191.903C518.897 193.364 526.242 194.026 532.846 197.893C543.393 204.064 548.153 213.732 550.191 225.169C552.254 236.75 549.505 247.954 547.449 259.234C546.191 266.161 544.348 273.039 545.751 280.243C546.511 284.574 548.525 288.586 551.543 291.781C556.43 296.977 559.844 303.004 560.888 310.19H540.135C537.833 307.626 537.953 304.156 536.883 301.14C534.896 295.522 532.437 290.206 528.33 285.93C523.865 281.282 523.538 275.885 524.595 270.129C526.192 261.476 528.224 252.885 528.865 244.081C530.01 228.267 525.765 214.336 513.614 203.617C509.259 199.78 503.963 197.171 498.269 196.06C493.345 195.084 488.427 194.038 483.484 193.15C476.233 191.84 472.101 187.363 470.277 180.479C468.741 174.9 468.459 169.05 469.453 163.349C470.679 156.535 473 149.991 474.101 143.133C476.17 130.222 472.063 119.365 463.535 109.924C459.667 105.648 455.498 101.737 450.328 98.9155C443.052 94.973 435.291 94.8408 427.392 95.565C422.361 96.0248 417.55 97.6307 412.588 98.3424C398.998 100.288 392.319 96.5349 386.175 84.1155C383.03 77.7169 380.206 71.1734 377.156 64.7307C372.257 54.3267 366.446 44.5902 357.843 36.7053C344.894 24.8275 330.014 22.0439 313.506 27.0822C301.984 30.5586 291.941 37.0832 282.828 44.565C271.036 54.2385 258.131 55.9011 243.836 53.3379C235.176 51.7886 226.856 48.7657 218.096 47.6698C205.021 46.0261 192.443 46.9267 180.437 52.8278C169.274 58.3258 161.369 67.0042 155.967 78.0948C150.785 88.713 148.628 100.137 147.584 111.769C147.257 115.422 146.898 119.056 145.383 122.476C143.2 127.407 139.502 130.235 134.226 131.085C128.838 131.869 123.372 131.951 117.963 131.331C110.353 130.594 102.687 131.381 95.7815 134.479C85.4236 139.152 79.6943 147.598 79.122 159.148C78.7573 166.573 80.3798 173.734 82.4552 180.806C83.5738 184.625 84.3463 188.537 84.7632 192.495C85.9707 203.548 80.361 211.055 72.0847 217.17C67.6824 220.426 62.5946 222.517 57.6704 224.81C45.0358 230.698 37.7343 240.901 33.2 253.692C28.9675 265.695 30.2316 277.416 34.4138 289.06C36.5457 294.98 38.8726 300.831 40.5015 306.908C41.0235 308.848 42.0611 309.333 43.8598 309.371C45.91 309.415 48.0797 308.766 49.9475 310.19Z" fill="#F6F8FF"/>
<path d="M409.331 294.487C411.305 295.904 411.752 297.699 410.796 299.935C409.909 302.032 409.287 304.268 408.243 306.277C407.199 308.286 407.343 309.766 409.362 310.919C412.903 313.211 415.978 315.957 418.047 319.736C427.386 329.113 436.512 338.73 446.134 347.805C454.152 355.362 456.768 363.928 453.328 374.369C452.857 379.074 449.297 381.65 446.033 384.093C437.549 390.442 425.493 389.516 417.733 382.204C414.984 379.628 412.393 376.876 409.708 374.231C408.664 373.091 407.519 372.064 406.394 371.013C406.05 370.768 405.738 370.482 405.463 370.162C403.3 367.372 400.941 366.787 397.608 368.556C393.558 370.71 388.898 370.83 384.401 370.843C331.737 370.987 279.08 370.899 226.416 370.95C217.266 370.95 210.467 367.435 206.442 358.984C205.694 357.416 205.713 355.753 205.185 354.178C201.675 343.17 200.053 331.84 199.405 320.34C197.789 317.141 197.977 313.91 198.361 310.371C198.928 305.288 198.901 300.156 198.279 295.079C198.279 272.017 198.323 248.954 198.223 225.891C198.239 211.218 197.42 196.556 195.77 181.976C195.449 179.3 194.676 178.305 191.776 178.368C182.343 178.582 172.91 178.462 163.476 178.443C159.659 178.443 158.678 177.574 157.998 173.877C157.359 170.368 157.148 166.794 157.37 163.234C158.13 150.607 166.124 142.98 178.752 142.948C192.368 142.948 205.983 142.948 219.599 142.948C255.517 142.948 291.438 142.963 327.36 142.993C329.668 142.993 331.096 142.577 332.247 140.272C334.303 136.122 337.97 133.747 342.46 132.595C344.938 131.965 346.529 130.334 346.435 127.638C346.359 125.428 345.032 123.986 342.957 123.261C341.171 122.632 339.718 123.261 338.335 124.401C332.417 129.282 325.549 128.98 321.109 123.677C316.669 118.374 317.625 111.352 323.335 106.415C329.007 101.639 336.33 99.2938 343.716 99.8873C351.103 100.481 357.958 103.965 362.797 109.586C367.636 115.206 370.068 122.509 369.567 129.913C369.066 137.317 365.671 144.224 360.12 149.139C358.742 150.311 358.189 150.997 359.34 152.874C364.478 161.225 365.893 170.672 367.176 180.118C368.547 190.302 369.786 200.492 369.83 210.783C369.83 212.754 370.49 213.699 372.289 214.479C390.59 222.457 403.251 235.817 410.274 254.559C413.242 262.501 414.431 270.751 414.444 279.209C414.444 281.923 413.626 283.945 410.67 284.455C407.664 284.606 406.35 283.485 406.136 280.368C405.922 277.137 406.073 273.9 405.589 270.656C402.262 248.438 390.64 232.239 370.301 222.793C355.403 215.865 339.97 215.443 324.493 221.224C321.461 222.358 318.367 223.404 315.688 225.293C296.425 237.101 285.96 253.973 285.168 276.879C284.168 305.672 305.45 333.887 337.938 338.043C355.139 340.248 370.71 335.65 384.2 324.534C385.087 323.804 385.942 323.036 386.873 322.349C393.791 315.51 399.293 307.707 402.595 298.455C402.87 297.445 403.281 296.477 403.815 295.577C405.211 293.48 407.104 293.133 409.331 294.487Z" fill="black"/>
<path d="M410.117 373.711C412.582 376.098 415.035 378.504 417.519 380.872C428.776 391.578 445.153 389.059 452.662 375.361C452.857 375.009 453.102 374.688 453.329 374.354C465.906 375.122 478.428 376.243 490.628 379.587C492.647 380.141 495.716 380.437 495.754 382.95C495.798 385.281 492.767 385.381 490.905 386.099C483.799 388.713 476.277 389.116 468.894 390.155C456.203 391.931 443.386 392.044 430.644 393.184C425.368 393.663 420.01 393.72 414.714 393.814C396.476 394.091 378.276 394.161 360.063 393.814C346.416 393.575 332.75 393.065 319.185 391.849C307.827 390.835 296.381 390.067 285.224 387.554C282.5 386.844 279.824 385.961 277.212 384.909C276.156 384.525 275.017 384.04 275.005 382.572C275.264 382.27 275.598 382.039 275.973 381.905C280.759 381.377 285.584 381.318 290.381 381.729C300.907 382.476 311.474 382.451 321.996 381.653C324.92 381.42 327.857 381.653 330.801 381.552C356.032 380.79 381.156 379.002 405.897 373.611C407.287 373.302 408.715 372.836 410.117 373.711Z" fill="#EFEFEF"/>
<path d="M198.298 295.081C199.285 299.194 198.757 303.388 198.927 307.545C199.097 311.808 198.751 316.091 199.43 320.342C198.656 318.534 197.053 319.013 195.657 319.013C164.044 319.013 132.434 319.013 100.825 319.013H7.5473C6.81778 319.013 6.08197 319.013 5.35245 319.013C3.1576 319.063 1.10739 318.837 0.252093 316.343C-0.653518 313.704 0.88099 312.211 2.83686 310.958C17.2889 310.958 31.7368 310.946 46.1804 310.92C47.4382 310.92 48.696 310.826 49.9538 310.782C50.9978 310.826 52.0355 310.908 53.0983 310.908C100.266 310.908 147.433 310.935 194.6 310.99C197.858 310.99 198.682 310.146 198.411 306.984C198.059 303.042 198.304 299.049 198.298 295.081Z" fill="#717171"/>
<path d="M275.564 382.545H274.935C262.087 381.481 249.194 381.021 236.378 379.447C223.171 377.822 209.964 376.09 197.235 371.997C194.948 371.248 192.789 370.155 190.833 368.753C187.89 366.687 187.688 364.836 190.424 362.455C193.99 359.363 198.512 358.16 202.901 356.888C204.537 356.416 205.247 355.773 205.209 354.18C206.291 356.315 207.26 358.513 208.473 360.572C212.121 366.769 217.448 369.805 224.793 369.767C251.289 369.641 277.79 369.717 304.286 369.717C331.307 369.717 358.329 369.717 385.351 369.717C390.728 369.717 396.042 369.351 400.652 366.07C401.664 365.346 402.318 365.585 403.06 366.391C404.538 368.004 406.067 369.54 407.576 371.159C406.878 373.414 404.928 372.79 403.431 372.803C392.558 372.885 381.684 372.57 370.823 372.91C356.742 373.351 342.655 373.647 328.58 374.56C316.694 375.334 304.827 376.172 293.041 377.973C287.06 378.874 281.073 379.818 275.564 382.545Z" fill="#E7E7E7"/>
<path d="M418.047 319.718L409.362 310.901H572.806C574.064 310.901 575.322 310.845 576.579 310.813C578.736 311.745 580.472 312.992 579.9 315.738C579.271 318.887 576.837 318.975 574.309 318.975C523.49 318.975 472.671 318.975 421.852 318.975C420.575 319.038 419.11 318.39 418.047 319.718Z" fill="#707070"/>
<path d="M49.9476 310.189C46.91 310.189 43.3064 311.121 41.0047 309.805C38.7029 308.489 38.9922 304.49 38.074 301.668C35.8163 294.835 32.7158 288.279 31.1561 281.2C29.3638 272.938 28.8481 264.706 31.4643 256.469C34.3761 247.312 38.1558 238.715 45.3566 231.989C51.0544 226.674 58.0918 223.688 64.909 220.3C73.1664 216.2 80.2227 210.853 83.2099 201.627C84.518 197.571 84.2602 193.308 83.43 189.214C82.1722 183.092 80.2856 177.103 79.1661 170.95C77.5058 161.988 77.2794 153.115 82.4615 144.921C88.3417 135.682 96.9828 131.941 107.548 130.675C114.617 129.825 121.497 131.425 128.459 130.833C131.352 130.587 134.239 130.405 137.031 129.428C142.949 127.356 145.207 122.557 146.03 116.978C147.326 108.028 147.917 98.9783 150.433 90.2054C154.992 74.4607 163.193 61.3675 177.758 53.1299C184.5 49.3197 191.871 47.3359 199.675 46.4101C211.222 45.0309 222.316 46.9517 233.309 49.8613C241.321 51.9837 249.302 53.4007 257.59 53.5078C266.395 53.6212 273.734 50.1699 280.577 45.0057C291.01 37.1586 301.638 29.4689 314.38 25.8539C330.8 21.1998 345.63 24.292 358.472 36.0879C369.477 46.1645 375.76 59.1759 381.672 72.4517C384.986 79.8895 388.2 87.3588 393.854 93.4236C398.312 98.21 403.916 98.8901 409.947 97.8762C418.751 96.3962 427.38 93.9211 436.486 94.3179C445.052 94.6958 452.209 98.0273 458.435 103.601C464.303 108.86 469.409 114.78 472.598 122.142C475.421 128.647 475.899 135.367 475.038 142.358C474.094 150.048 471.145 157.284 470.007 164.923C468.868 172.562 470.007 179.761 473.673 186.449C475.34 189.478 478.478 191.078 481.849 191.828C487.025 192.98 492.232 193.981 497.427 195.039C510.897 197.785 519.878 206.01 525.5 218.222C529.005 225.849 530.519 234.241 529.903 242.613C529.337 250.908 527.771 259.12 525.941 267.244C525.231 270.721 524.904 274.264 524.966 277.812C524.966 281.49 527.595 283.688 529.613 286.081C534.814 292.247 537.481 299.502 539.418 307.141C539.676 308.143 539.852 309.175 540.047 310.189C536.902 310.189 533.393 311.052 530.72 309.931C527.809 308.709 528.62 304.484 527.324 301.744C525.614 298.142 523.979 294.413 521.111 291.636C514.954 285.678 514.092 278.41 515.237 270.519C516.815 259.712 520.306 249.107 519.822 238.11C519.067 221.024 510.074 206.161 490.263 203.749C484.723 203.076 479.075 202.232 474 199.612C466.309 195.644 462.925 188.622 460.837 180.668C458.353 171.221 459.995 162.058 462.397 152.894C463.692 147.963 465.038 143.051 465.302 137.886C465.661 130.82 463.246 124.825 459.183 119.238C455.693 114.446 451.637 110.333 446.486 107.367C439.316 103.198 431.6 104.061 423.915 105.364C417.877 106.385 411.966 108.035 405.771 108.299C395.558 108.727 388.571 103.532 382.779 95.9742C377.251 88.7569 373.974 80.3681 370.37 72.118C366.195 62.4759 361.327 53.2244 353.937 45.6103C341.561 32.9138 327.002 30.7096 310.694 38.0529C300.242 42.77 291.199 49.7165 281.834 56.197C275.573 60.6292 268.18 63.1829 260.521 63.5592C249.333 64.0945 238.585 61.8147 227.85 58.968C215.423 55.6805 202.795 54.4903 190.286 58.6028C175.683 63.4017 166.815 73.9947 161.652 88.0767C158.615 96.3647 157.426 105.005 156.621 113.766C155.992 120.781 154.294 127.671 149.483 133.15C145.766 137.376 140.679 139.637 135.201 140.198C129.306 140.899 123.356 141.004 117.441 140.513C110.957 139.883 104.234 140.28 98.2154 143.498C91.8195 146.924 88.5618 152.416 88.1531 159.683C87.782 166.712 89.8259 173.306 91.6371 179.943C93.6056 187.167 94.9451 194.567 93.4169 201.923C90.9768 213.637 83.1093 221.446 73.179 227.341C69.2358 229.671 64.9656 231.447 60.8841 233.557C46.9792 240.743 40.9229 252.854 39.8161 267.862C39.0802 277.793 43.3379 286.591 46.583 295.622C48.3879 300.308 50.4444 304.994 49.9476 310.189Z" fill="#FEFEFE"/>
<path d="M409.331 294.487C405.904 293.756 404.841 294.355 403.57 297.881C400.124 307.467 394.98 315.925 387.313 322.733C385.135 323.99 382.676 324.679 380.163 324.736C373.805 325.088 367.428 325.435 361.095 324.427C360 324.251 358.057 324.458 358.818 322.185C359.698 320.856 361.208 320.61 362.535 320.018C378.15 313.04 387.571 301.213 390.332 284.247C394.212 260.409 376.786 235.81 350.869 232.913C334.084 231.023 320.625 237.29 309.814 249.917C308.947 250.937 308.305 252.228 306.796 252.499C305.293 251.8 305.538 250.44 305.701 249.237C306.614 242.158 308.721 235.285 311.934 228.914C312.8 227.364 313.887 225.949 315.16 224.713C325.908 218.201 337.662 215.663 350.051 216.664C377.333 218.875 399.023 237.737 405.325 264.352C406.512 269.244 407.022 274.277 406.841 279.309C406.721 282.2 407.771 283.932 410.645 284.454C410.042 287.773 408.683 290.998 409.331 294.487Z" fill="#8DA8B6"/>
<path d="M193.701 150.52H206.53C246.537 150.52 286.545 150.495 326.555 150.444C329.48 150.444 330.442 151.238 330.115 154.091C329.888 156.062 330.19 158.084 330.046 160.061C329.624 165.987 331.234 170.868 337.209 173.872C334.177 175.516 332.02 177.531 330.882 180.441C329.768 183.303 329.677 186.463 330.624 189.384C331.384 191.804 332.913 193.909 334.978 195.378C337.044 196.847 339.532 197.599 342.064 197.521C344.538 197.417 346.918 196.541 348.87 195.016C350.822 193.49 352.249 191.391 352.95 189.012C354.724 183.111 352.61 178.06 346.391 173.835C352.554 170.686 354.038 165.326 353.309 158.09C355.352 160.823 355.956 163.128 356.617 165.332C360.39 177.871 361.453 190.826 362.277 203.8C362.421 206.136 363.836 209.279 362.132 210.601C360.874 211.584 357.793 210.211 355.522 209.883C350.246 209.09 344.913 209.09 339.605 209.09C301.481 209.052 263.357 209.052 225.234 209.09C224.193 209.046 223.15 209.107 222.121 209.273C221.304 209.46 220.577 209.922 220.06 210.582C219.543 211.241 219.267 212.058 219.279 212.897C219.29 213.735 219.589 214.544 220.125 215.189C220.66 215.834 221.4 216.275 222.221 216.44C223.471 216.611 224.734 216.674 225.995 216.628H313.411C310.814 218.304 308.934 219.513 307.053 220.735C302.453 223.676 298.314 227.284 294.771 231.441C292.884 233.683 290.897 234.338 288.054 234.319C267.112 234.206 246.163 234.256 225.215 234.262C224.376 234.217 223.536 234.232 222.699 234.307C220.53 234.615 219.253 235.944 219.297 238.117C219.335 240.126 220.555 241.429 222.592 241.675C223.738 241.783 224.888 241.825 226.039 241.801H286.344C283.564 247.362 281.13 252.658 279.426 258.245C278.879 260.058 277.388 259.385 276.281 259.391C259.314 259.429 242.346 259.429 225.378 259.391C224.643 259.391 223.913 259.391 223.177 259.391C220.857 259.517 219.347 260.726 219.297 263.063C219.247 265.399 220.687 266.696 223.033 266.841C224.077 266.911 225.127 266.917 226.177 266.917C242.308 266.917 258.439 266.961 274.564 266.866C276.923 266.866 277.615 267.232 277.124 269.795C276.35 273.813 276.533 277.982 276.986 282.019C277.237 284.293 276.438 284.576 274.501 284.57C258.056 284.507 241.61 284.532 225.171 284.538C224.231 284.48 223.287 284.514 222.353 284.639C221.455 284.753 220.635 285.209 220.065 285.913C219.494 286.617 219.217 287.514 219.291 288.418C219.264 289.273 219.561 290.108 220.124 290.753C220.686 291.398 221.472 291.805 222.322 291.894C223.464 292.042 224.617 292.099 225.768 292.064C242.208 292.064 258.653 292.146 275.093 291.995C277.747 291.995 278.646 292.807 279.218 295.282C282.658 310.12 290.727 322.061 302.456 331.621C303.085 332.15 303.714 332.692 304.374 333.233C304.483 333.373 304.576 333.525 304.651 333.687C303.588 334.272 302.45 334.002 301.393 334.002C281.688 334.002 261.997 334.002 242.321 334.002C237.114 334.002 235.982 335.419 236.868 340.495C237.661 345.073 237.736 349.627 236.239 354.148C234.177 360.497 228.787 361.152 223.429 361.825C219.089 362.373 216.63 359.558 214.737 356.283C210.712 349.356 209.448 341.553 208.373 333.756C206.405 319.51 205.971 305.157 205.826 290.798C205.556 264.908 206.304 239.011 205.562 213.121C205.084 196.261 204.266 179.402 199.562 163.021C198.185 158.606 196.213 154.401 193.701 150.52Z" fill="#EEECED"/>
<path d="M241.019 361.611C244.547 356.101 245.333 349.872 244.792 343.417C244.604 341.282 245.987 341.66 247.201 341.653H278.281C290.939 341.653 303.6 341.653 316.266 341.653C318.039 341.647 319.798 341.959 321.461 342.573C337.624 348.405 353.788 348.377 369.955 342.491C374.112 340.98 378.062 340.784 381.552 344.771C385.671 349.488 390.306 353.771 394.834 358.116C396.495 359.703 396.092 360.358 394.206 361.045C391.712 361.862 389.092 362.229 386.47 362.128C338.649 362.153 290.823 362.153 242.994 362.128C242.409 362.159 241.736 362.399 241.019 361.611Z" fill="#D3D1D2"/>
<path d="M315.166 224.715C311.556 231.013 308.594 237.613 307.355 244.806C306.94 247.243 305.468 249.718 306.908 252.3C307.575 253.843 306.424 254.876 305.802 256.016C296.022 273.895 299.11 296.372 313.851 310.385C325.455 321.419 339.397 325.424 355.245 322.25C356.723 321.954 358.214 320.991 359.755 322.099C359.887 322.559 358.371 323.151 359.579 323.359C366.452 324.461 373.414 324.253 380.294 323.781C382.647 323.623 384.973 323.107 387.313 322.754C359.805 349.835 312.047 342.844 292.494 308.867C284.438 295.038 282.1 278.604 285.977 263.072C289.855 247.54 299.641 234.141 313.248 225.736C313.82 225.307 314.518 225.037 315.166 224.715Z" fill="#7994A3"/>
<path d="M275.564 382.546C276.822 379.246 280.199 379.561 282.646 378.975C291.733 376.802 301.009 375.725 310.317 374.938C320.474 374.075 330.637 373.527 340.812 372.948C346.862 372.608 352.912 372.948 358.924 372.438C374.263 371.222 389.615 372.18 404.953 371.852C405.865 371.852 406.84 372.085 407.551 371.153L410.066 373.71C401.444 375.599 392.828 377.489 384.049 378.509C377.345 379.284 370.634 380.027 363.924 380.644C349.919 381.935 335.869 382.281 321.788 382.754C312.493 383.062 303.192 383.339 293.941 382.999C287.859 382.766 281.708 382.76 275.564 382.546Z" fill="#DFDFDF"/>
<path d="M389.917 330.88C394.483 326.71 398.759 322.277 402.237 317.138C402.973 316.048 403.495 315.74 404.589 316.842C413.528 325.948 422.496 335.024 431.493 344.067C431.619 344.359 431.646 344.684 431.571 344.993C431.496 345.302 431.323 345.578 431.078 345.78C426.217 350.655 421.645 355.857 416.318 360.228C414.708 360.549 413.853 359.365 412.89 358.458C405.105 351.064 398.099 342.953 391.238 334.721C390.351 333.676 389.049 332.599 389.917 330.88Z" fill="#2394C6"/>
<path d="M337.624 155.035C337.624 152.937 337.593 150.847 337.624 148.737C337.712 143.969 339.913 141.085 344.416 139.769C350.598 137.967 354.384 132.986 354.026 127.104C353.667 121.221 348.995 116.271 342.706 115.478C339.322 115.05 336.335 116.145 333.712 118.331C330.826 120.73 328.329 120.762 326.65 118.513C325.097 116.429 325.744 113.954 328.537 111.787C335.379 106.541 342.894 105.426 350.636 109.268C358.378 113.11 362.497 119.779 362.227 128.571C361.962 137.262 357.485 143.39 349.592 146.835C346.875 148.019 345.693 149.644 345.819 152.566C345.97 155.809 345.9 159.065 345.819 162.315C345.762 165.212 343.976 167.24 341.63 167.24C339.284 167.24 337.612 165.3 337.542 162.277C337.58 159.859 337.624 157.447 337.624 155.035Z" fill="#F66363"/>
<path d="M416.33 359.899C420.556 355.56 424.795 351.233 429.002 346.882C429.87 345.987 430.65 344.992 431.474 344.066C435.612 348.173 439.995 352.071 443.844 356.435C445.279 358.032 446.323 359.94 446.895 362.011C447.467 364.081 447.55 366.255 447.138 368.363C446.727 370.471 445.831 372.454 444.523 374.156C443.214 375.858 441.529 377.232 439.599 378.169C439.198 378.29 438.774 378.315 438.361 378.243C437.949 378.171 437.558 378.003 437.222 377.754C429.549 372.892 421.99 367.866 416.135 360.749C416.088 360.603 416.081 360.447 416.115 360.297C416.15 360.148 416.224 360.01 416.33 359.899Z" fill="#158BBE"/>
<path d="M179.456 170.906C175.488 170.906 171.513 170.824 167.545 170.944C165.658 171.001 164.86 170.314 164.935 168.425C165.011 166.536 164.835 164.646 165.017 162.757C165.86 154.148 171.765 149.462 180.343 150.501C181.644 150.67 182.897 151.099 184.028 151.764C185.159 152.428 186.146 153.314 186.928 154.368C190.393 158.733 192.015 163.916 193.386 169.206C193.839 170.938 192.801 170.868 191.688 170.862L179.456 170.906Z" fill="#D3D1D2"/>
<path d="M416.33 359.899V360.529C414.846 361.933 413.978 364.308 411.236 363.678C402.335 354.836 393.43 346.002 384.52 337.176C383.338 336.011 383.609 335.35 384.835 334.531C386.564 333.366 388.212 332.081 389.898 330.847C390.482 333.568 392.715 335.161 394.3 337.145C400.63 344.876 407.417 352.22 414.626 359.137C415.072 359.605 415.684 359.879 416.33 359.899Z" fill="#1783B3"/>
<path d="M411.236 363.708C413.532 363.607 414.041 360.64 416.33 360.559C422.361 366.309 428.726 371.643 435.826 376.039C437.084 376.801 438.342 377.481 439.6 378.199C437.156 379.62 434.325 380.228 431.514 379.935C428.703 379.642 426.058 378.463 423.959 376.568C419.563 372.436 415.469 367.996 411.236 363.708Z" fill="#1676A3"/>
<path d="M341.693 180.637C344.013 180.637 345.837 182.526 345.919 185.102C346.007 187.804 344.202 189.907 341.762 189.945C339.322 189.983 337.598 188.056 337.624 185.165C337.649 182.514 339.315 180.656 341.693 180.637Z" fill="#F26161"/>
<path d="M359.729 322.097C351.554 324.276 343.322 324.937 334.964 322.947C327.834 321.283 321.202 317.944 315.616 313.206C310.03 308.468 305.65 302.466 302.839 295.697C300.027 288.929 298.864 281.587 299.446 274.28C300.028 266.972 302.338 259.908 306.185 253.671C306.449 253.23 306.651 252.745 306.883 252.285C314.524 241.61 324.612 234.651 337.624 232.327C360.591 228.227 383.407 242.568 389.822 265.076C392.992 276.108 391.961 287.925 386.927 298.238C381.894 308.552 373.218 316.627 362.578 320.9C361.66 321.272 360.711 321.694 359.729 322.097Z" fill="black"/>
<path d="M248.855 191.493C240.998 191.493 233.143 191.493 225.291 191.493C224.239 191.53 223.185 191.465 222.146 191.297C221.301 191.18 220.531 190.746 219.992 190.084C219.453 189.421 219.185 188.579 219.241 187.726C219.189 186.874 219.455 186.032 219.987 185.364C220.519 184.697 221.279 184.25 222.121 184.112C222.838 183.98 223.568 183.927 224.297 183.954H273.634C274.158 183.93 274.683 183.94 275.206 183.986C277.37 184.269 278.697 185.491 278.703 187.701C278.709 189.912 277.445 191.297 275.238 191.386C271.577 191.53 267.911 191.493 264.244 191.505C259.106 191.505 253.987 191.493 248.855 191.493Z" fill="#010101"/>
<path d="M383.728 282.082C382.753 301.146 364.446 317.293 344.435 316.563C331.624 316.091 321.442 310.517 313.914 300.113C314.688 297.915 316.619 298.583 318.109 298.57C328.455 298.488 338.794 298.526 349.139 298.532C351.335 298.619 353.53 298.364 355.648 297.776C358.792 296.788 360.623 294.35 360.597 291.302C360.572 288.254 358.711 285.829 355.61 284.853C353.489 284.276 351.292 284.026 349.095 284.11C336.668 284.11 324.235 284.142 311.801 284.11C310.11 284.11 308.141 284.545 307.11 282.479C306.726 277.623 306.67 272.793 308.292 268.101C309.688 266.841 311.437 267.112 313.078 267.106C325.43 267.081 337.781 267.081 350.133 267.106C351.391 267.146 352.651 267.11 353.906 266.999C357.837 266.527 360.673 263.497 360.547 259.926C360.421 256.355 357.459 253.44 353.466 253.383C343.208 253.225 332.945 253.345 322.688 253.32C321.423 253.413 320.152 253.322 318.914 253.049C318.027 252.785 316.996 252.489 317.688 251.16C323.241 245.586 329.637 241.606 337.548 240.327C346.064 238.879 353.592 241.877 360.849 245.725C369.76 250.442 376.779 257.168 381.143 266.356C383.558 271.221 384.459 276.699 383.728 282.082Z" fill="#EFEFEE"/>
<path d="M307.11 282.454C308.103 283.524 309.405 283.266 310.638 283.266C324.021 283.266 337.402 283.266 350.78 283.266C352.24 283.271 353.698 283.393 355.138 283.631C356.951 283.916 358.604 284.835 359.803 286.225C361.003 287.615 361.671 289.386 361.69 291.223C361.709 293.06 361.077 294.844 359.906 296.258C358.735 297.673 357.102 298.626 355.296 298.948C353.753 299.205 352.193 299.333 350.629 299.332C339.441 299.363 328.253 299.332 317.071 299.376C316.002 299.376 314.732 298.847 313.927 300.094C310.203 294.885 307.858 288.816 307.11 282.454Z" fill="#909090"/>
<path d="M317.713 251.109C317.983 252.998 319.48 252.217 320.436 252.224C327.763 252.293 335.102 252.475 342.447 252.224C360.811 251.594 360.874 253.962 361.553 260.234C362.232 266.507 357.824 268.037 342.24 268.044L308.317 268.082C309.757 261.488 313.116 255.958 317.713 251.109Z" fill="#8F8F8F"/>
<path d="M383.728 282.084C384.91 260.936 363.32 243.667 345.032 240.928C342.558 240.593 340.068 240.382 337.573 240.298C350.258 236.601 366.754 242.401 375.559 253.75C382.036 262.076 385.187 271.441 383.728 282.084Z" fill="#E1E0DF"/>
</svg>
