<svg width="25" height="26" viewBox="0 0 25 26" fill="none" xmlns="http://www.w3.org/2000/svg">
<path d="M21.7373 0.5H9.26101C7.87226 0.5 6.74851 1.62375 6.74851 3.0125V10.0588L0.871012 15.8613C0.694905 16.0354 0.574513 16.258 0.525114 16.5007C0.475714 16.7434 0.499535 16.9953 0.593552 17.2245C0.687569 17.4536 0.847545 17.6497 1.05318 17.7878C1.25881 17.9258 1.50082 17.9997 1.74851 18V24.25C1.74851 24.5815 1.88021 24.8995 2.11463 25.1339C2.34905 25.3683 2.66699 25.5 2.99851 25.5H22.9985C23.33 25.5 23.648 25.3683 23.8824 25.1339C24.1168 24.8995 24.2485 24.5815 24.2485 24.25V3.01125C24.2485 1.62375 23.126 0.5 21.7373 0.5ZM11.651 16.8888V23H4.24851V16.04L7.98226 12.3538L11.651 16.1075V16.8888ZM14.2485 9.25H11.7485V6.75H14.2485V9.25ZM19.2485 19.25H16.7485V16.75H19.2485V19.25ZM19.2485 14.25H16.7485V11.75H19.2485V14.25ZM19.2485 9.25H16.7485V6.75H19.2485V9.25Z" fill="#7E8989"/>
</svg>
