<svg width="15" height="18" viewBox="0 0 15 18" fill="none" xmlns="http://www.w3.org/2000/svg">
<path fill-rule="evenodd" clip-rule="evenodd" d="M10.9969 7.83086C10.9969 9.61374 9.51308 11.0591 7.68265 11.0591C5.85221 11.0591 4.36836 9.61374 4.36836 7.83086C4.36836 6.04797 5.85221 4.60265 7.68265 4.60265C9.51308 4.60265 10.9969 6.04797 10.9969 7.83086ZM9.33979 7.83086C9.33979 8.7223 8.59786 9.44496 7.68265 9.44496C6.76743 9.44496 6.0255 8.7223 6.0255 7.83086C6.0255 6.93941 6.76743 6.21675 7.68265 6.21675C8.59786 6.21675 9.33979 6.93941 9.33979 7.83086Z" fill="#161D3F"/>
<path fill-rule="evenodd" clip-rule="evenodd" d="M2.31517 12.8718C-0.667628 10.1057 -0.783513 5.50814 2.05633 2.60281C4.89618 -0.302509 9.61637 -0.415383 12.5992 2.3507C15.582 5.11679 15.6978 9.71437 12.858 12.6197L7.716 17.8802L2.31517 12.8718ZM11.6578 11.5067L7.65848 15.5982L3.45784 11.7028C1.13788 9.55139 1.04775 5.9755 3.25652 3.7158C5.46529 1.4561 9.13655 1.36831 11.4565 3.51971C13.7765 5.67111 13.8666 9.24701 11.6578 11.5067Z" fill="#161D3F"/>
</svg>
